<?xml version="1.0" standalone="no"?>
<!DOCTYPE svg PUBLIC "-//W3C//DTD SVG 20010904//EN"
 "http://www.w3.org/TR/2001/REC-SVG-20010904/DTD/svg10.dtd">
<svg version="1.0" xmlns="http://www.w3.org/2000/svg"
 width="500.000000pt" height="500.000000pt" viewBox="0 0 500.000000 500.000000"
 preserveAspectRatio="xMidYMid meet">

<g transform="translate(0.000000,500.000000) scale(0.100000,-0.100000)"
fill="#000000" stroke="none">
<path d="M2707 4454 c-14 -14 -7 -35 11 -32 9 2 17 10 17 17 0 16 -18 25 -28
15z"/>
<path d="M3200 4380 c-1 -30 -3 -89 -4 -130 -1 -41 -3 -110 -4 -152 l-2 -78
-35 0 c-64 0 -125 -47 -125 -96 0 -81 160 -66 189 18 6 17 11 80 11 139 l0
109 28 0 c62 0 122 -63 122 -129 l1 -36 14 25 c33 58 4 157 -61 206 -48 36
-104 95 -104 108 -1 6 -7 25 -15 41 -13 30 -13 30 -15 -25z"/>
<path d="M2435 4372 l-70 -37 -3 -128 c-2 -78 2 -135 8 -148 24 -45 88 -43
138 3 21 21 22 28 22 185 0 124 -3 163 -12 163 -7 0 -44 -17 -83 -38z m65
-142 l0 -80 -33 0 c-18 0 -43 -7 -55 -16 l-23 -16 3 74 3 73 45 22 c25 12 48
22 53 22 4 1 7 -35 7 -79z"/>
<path d="M1974 4315 c-7 -29 10 -55 36 -55 24 0 42 24 38 52 -2 18 -10 24 -35
26 -28 3 -33 -1 -39 -23z"/>
<path d="M3017 4322 c-22 -24 -21 -55 1 -75 35 -32 82 -10 82 38 0 49 -52 71
-83 37z"/>
<path d="M2695 4279 c-10 -15 3 -25 16 -12 7 7 7 13 1 17 -6 3 -14 1 -17 -5z"/>
<path d="M2189 4273 c-2 -16 0 -40 12 -120 8 -62 15 -83 26 -83 11 0 14 7 10
28 -3 15 -11 62 -17 105 -7 42 -17 77 -21 77 -5 0 -10 -3 -10 -7z"/>
<path d="M1820 4245 c0 -8 7 -15 15 -15 8 0 15 7 15 15 0 8 -7 15 -15 15 -8 0
-15 -7 -15 -15z"/>
<path d="M2845 4244 c-19 -20 -16 -43 8 -58 37 -23 77 35 41 61 -23 17 -29 16
-49 -3z"/>
<path d="M2675 4163 c-4 -32 -9 -66 -11 -75 -4 -12 0 -18 10 -18 10 0 17 15
21 48 3 26 9 59 11 75 4 20 2 27 -9 27 -11 0 -17 -16 -22 -57z"/>
<path d="M3010 4145 c0 -8 5 -15 10 -15 6 0 10 7 10 15 0 8 -4 15 -10 15 -5 0
-10 -7 -10 -15z"/>
<path d="M1915 4117 l-60 -32 -3 -92 c-3 -88 -2 -93 22 -108 31 -20 70 -11 96
22 17 22 20 41 20 129 0 56 -3 105 -8 108 -4 2 -34 -10 -67 -27z m55 -91 c0
-42 -2 -45 -31 -51 -17 -4 -40 -16 -50 -26 -19 -19 -19 -18 -19 31 0 47 2 50
38 69 55 30 62 27 62 -23z"/>
<path d="M2060 4135 c0 -9 5 -15 11 -13 6 2 11 8 11 13 0 5 -5 11 -11 13 -6 2
-11 -4 -11 -13z"/>
<path d="M1676 4104 c-21 -21 -20 -30 6 -48 27 -19 58 -5 58 28 0 36 -37 47
-64 20z"/>
<path d="M2985 4070 c4 -6 11 -8 16 -5 14 9 11 15 -7 15 -8 0 -12 -5 -9 -10z"/>
<path d="M1474 4035 c-9 -23 3 -45 26 -45 25 0 37 25 20 45 -16 19 -39 19 -46
0z"/>
<path d="M3489 4034 c-15 -18 -2 -47 24 -52 22 -5 42 35 26 54 -15 18 -33 18
-50 -2z"/>
<path d="M2110 4005 c0 -8 5 -15 10 -15 6 0 10 7 10 15 0 8 -4 15 -10 15 -5 0
-10 -7 -10 -15z"/>
<path d="M2214 3989 c-9 -15 12 -33 30 -26 9 4 16 13 16 22 0 17 -35 21 -46 4z"/>
<path d="M2864 3949 c-3 -6 -2 -15 4 -21 13 -13 32 -2 32 18 0 16 -26 19 -36
3z"/>
<path d="M1172 3918 c-15 -15 -15 -41 0 -56 18 -18 56 -14 68 7 13 25 13 27
-6 45 -18 19 -45 21 -62 4z"/>
<path d="M1737 3914 c-9 -10 2 -24 19 -24 8 0 14 7 14 15 0 15 -21 21 -33 9z"/>
<path d="M2340 3905 c-174 -37 -307 -113 -436 -248 -73 -77 -98 -111 -141
-197 -120 -241 -143 -488 -66 -705 31 -88 82 -175 103 -175 48 0 51 54 9 153
-139 328 -7 761 296 962 237 158 526 174 752 41 106 -63 157 -105 216 -178
207 -260 230 -593 69 -993 -22 -55 -54 -131 -72 -169 -49 -108 -79 -209 -105
-354 -14 -73 -30 -152 -36 -175 -26 -98 -107 -214 -185 -266 -118 -78 -302
-84 -435 -15 -122 62 -228 213 -299 424 -27 79 -39 251 -21 301 6 19 7 29 2
24 -5 -6 -20 -48 -32 -95 -18 -73 -21 -102 -16 -205 6 -136 28 -216 82 -308
54 -90 104 -144 181 -196 224 -151 488 -128 672 57 104 104 137 183 177 423
25 149 46 214 124 382 23 49 41 92 41 97 0 4 15 48 34 97 19 48 47 135 63 193
25 95 28 120 27 265 -1 195 -17 265 -100 435 -51 104 -65 124 -148 205 -110
107 -168 144 -307 192 -98 34 -113 37 -244 39 -92 2 -162 -1 -205 -11z"/>
<path d="M3653 3894 c-62 -31 -79 -120 -32 -170 l20 -22 -31 -61 c-21 -43 -39
-65 -58 -72 -74 -26 -87 -43 -98 -129 -6 -47 -10 -53 -47 -71 -28 -15 -36 -24
-29 -31 8 -8 23 -6 52 7 40 18 60 54 60 111 0 28 37 74 59 74 31 0 71 40 96
96 23 53 25 54 65 54 34 0 48 6 76 34 28 28 34 41 34 78 0 52 -21 85 -66 104
-42 18 -61 17 -101 -2z m101 -45 c19 -15 26 -30 26 -54 0 -36 -37 -75 -71 -75
-24 0 -15 23 14 35 25 11 34 49 17 71 -18 21 -56 17 -80 -8 l-20 -22 0 22 c0
24 35 52 66 52 12 0 33 -9 48 -21z"/>
<path d="M1527 3863 c-22 -21 0 -63 33 -63 18 0 32 40 19 56 -12 15 -41 19
-52 7z"/>
<path d="M1335 3810 c-8 -13 -14 -8 136 -122 63 -49 140 -108 171 -134 32 -25
63 -42 68 -39 6 4 8 10 5 15 -5 7 -204 163 -362 282 -7 5 -14 5 -18 -2z"/>
<path d="M1645 3800 c-8 -13 4 -32 16 -25 12 8 12 35 0 35 -6 0 -13 -4 -16
-10z"/>
<path d="M3400 3795 c0 -8 7 -15 15 -15 8 0 15 7 15 15 0 8 -7 15 -15 15 -8 0
-15 -7 -15 -15z"/>
<path d="M1800 3782 c-20 -16 -21 -21 -11 -41 18 -33 65 -26 69 11 5 38 -28
54 -58 30z"/>
<path d="M3226 3778 c-9 -12 -16 -29 -16 -38 0 -30 30 -60 60 -60 53 0 78 62
40 100 -27 27 -65 26 -84 -2z"/>
<path d="M2454 3741 c-129 -21 -246 -81 -340 -175 -87 -88 -126 -155 -154
-271 -46 -184 -21 -369 67 -486 25 -32 47 -59 49 -59 2 0 -9 24 -26 53 -50 89
-71 163 -77 273 -10 174 37 301 156 426 113 119 237 170 404 166 40 0 56 -3
37 -4 -190 -18 -302 -67 -407 -177 -121 -128 -176 -284 -155 -437 20 -140 59
-213 210 -389 60 -72 67 -107 27 -146 -13 -14 -30 -25 -38 -25 -40 0 -60 -67
-32 -104 32 -42 10 -83 -62 -120 -39 -20 -63 -62 -63 -111 0 -71 88 -130 164
-111 37 9 84 53 108 100 24 49 63 93 99 111 14 8 66 20 116 28 107 18 155 40
210 99 56 61 68 102 68 233 0 105 -2 114 -33 177 -38 77 -123 162 -198 198
-67 32 -191 39 -264 15 -60 -20 -130 -83 -130 -117 0 -19 -2 -20 -10 -8 -6 8
-8 31 -4 51 3 22 1 40 -5 44 -6 3 -16 16 -22 28 -11 21 -10 20 16 -3 l28 -25
-6 25 c-3 14 -13 49 -21 79 -21 72 -14 75 14 6 23 -57 46 -76 33 -27 -11 40
-7 143 6 172 10 23 11 22 6 -11 -3 -20 0 -60 7 -90 l12 -54 8 57 c7 56 61 203
78 213 5 3 0 -20 -11 -52 -11 -32 -22 -87 -24 -123 l-5 -65 14 47 c20 68 137
277 136 242 0 -5 -7 -18 -16 -29 -16 -22 -77 -205 -70 -212 2 -2 7 6 11 19 10
30 66 118 119 184 43 55 72 75 38 27 -25 -36 -102 -177 -102 -187 0 -5 21 16
47 45 26 30 74 81 106 114 l59 60 -64 -95 c-105 -157 -105 -159 13 -42 118
115 156 143 97 71 -46 -58 -99 -128 -128 -169 -19 -27 -6 -18 55 36 109 95
185 157 189 153 2 -2 -34 -44 -81 -94 -47 -49 -95 -103 -106 -120 -18 -26 -13
-23 33 15 30 25 73 58 95 73 22 15 63 44 90 64 37 27 21 7 -65 -81 -63 -64
-117 -119 -120 -123 -3 -3 27 17 65 44 142 100 264 172 190 111 -63 -51 -203
-193 -170 -171 17 11 62 40 100 65 68 45 170 99 150 81 -5 -5 -35 -29 -65 -53
-67 -53 -171 -150 -162 -150 4 0 23 10 42 22 73 45 223 128 226 125 2 -1 -36
-33 -84 -69 -92 -71 -164 -132 -147 -126 6 2 61 29 124 61 62 32 115 56 117
54 3 -2 -28 -27 -68 -55 -40 -27 -91 -66 -113 -86 l-40 -37 114 56 c62 31 115
54 117 52 3 -2 -41 -37 -96 -77 -55 -41 -100 -75 -100 -76 0 -5 29 7 118 47
45 21 82 34 82 30 0 -4 -38 -34 -84 -66 -47 -33 -83 -61 -81 -63 2 -2 36 10
76 27 41 17 78 31 83 31 18 0 -18 -31 -80 -66 -35 -21 -62 -39 -60 -41 2 -2
28 5 57 17 96 36 102 17 12 -35 -54 -32 -51 -41 7 -20 52 18 51 18 43 0 -3 -9
-23 -25 -44 -36 -49 -24 -51 -34 -3 -14 33 13 35 13 32 -2 -2 -10 -18 -28 -37
-40 -35 -24 -35 -31 0 -13 34 19 22 -18 -13 -41 -23 -14 -26 -19 -10 -14 26 7
31 -15 7 -35 -8 -7 -12 -16 -9 -21 11 -18 -94 -173 -146 -217 -48 -40 -106
-64 -200 -82 -124 -24 -155 -41 -193 -105 -37 -65 -84 -114 -124 -131 -38 -17
-136 -18 -165 -3 -11 6 -22 9 -24 6 -10 -10 49 -143 91 -208 193 -290 586
-246 688 76 9 28 26 108 38 180 22 135 48 216 143 445 108 257 143 416 133
599 -9 156 -47 269 -139 402 -122 180 -376 292 -584 260z m6 -1061 c38 -19 42
-20 72 -4 l32 17 -15 -24 c-9 -13 -18 -32 -22 -42 -6 -16 -4 -16 23 -2 36 18
36 17 9 -29 -23 -40 -21 -43 21 -21 l30 15 -37 -66 -36 -66 34 16 34 17 -34
-30 c-37 -32 -108 -61 -150 -61 -25 0 -24 2 10 21 64 37 86 106 55 167 -18 36
-41 55 -107 93 l-54 31 48 -6 c26 -3 65 -15 87 -26z m351 -584 c-34 -36 -83
-56 -133 -55 l-43 1 49 9 c27 4 69 21 95 37 57 37 60 38 32 8z m14 -56 c-10
-11 -37 -29 -62 -41 -34 -16 -41 -24 -33 -34 9 -11 18 -11 51 0 46 16 45 4 -1
-15 -31 -13 -43 -50 -16 -50 13 0 13 -4 0 -27 -7 -16 -14 -38 -14 -50 0 -32
-60 -105 -110 -133 -91 -50 -210 -22 -266 63 -41 62 -45 156 -9 203 14 18 14
17 5 -9 -27 -76 4 -181 64 -220 44 -29 110 -40 153 -27 49 16 100 54 124 94
23 38 25 124 5 165 l-15 28 67 35 c81 43 79 43 57 18z m-205 -51 c49 -28 70
-66 70 -128 0 -42 -5 -56 -30 -84 -39 -45 -79 -61 -135 -55 -88 10 -144 83
-130 168 17 100 132 151 225 99z"/>
<path d="M2540 1943 c31 -12 34 -53 4 -53 -8 0 -14 -5 -14 -11 0 -7 -11 -9
-30 -5 -28 5 -30 3 -30 -23 0 -47 31 -76 80 -76 80 0 116 82 64 144 -19 23
-34 31 -57 30 -18 0 -25 -3 -17 -6z"/>
<path d="M1144 3686 c-14 -36 13 -57 46 -36 12 7 12 13 4 27 -15 24 -43 28
-50 9z"/>
<path d="M3470 3662 c-131 -101 -170 -134 -164 -143 3 -6 16 -3 32 7 49 32
192 148 192 156 0 15 -25 7 -60 -20z"/>
<path d="M1341 3654 c-17 -14 -31 -32 -31 -40 0 -20 8 -18 42 11 55 46 128 21
128 -45 0 -35 -32 -59 -55 -40 -12 10 -11 15 6 29 19 15 20 18 5 30 -26 22
-66 -1 -66 -37 0 -57 72 -83 121 -43 18 14 24 29 24 61 0 87 -105 132 -174 74z"/>
<path d="M1730 3660 c0 -5 4 -10 9 -10 6 0 13 5 16 10 3 6 -1 10 -9 10 -9 0
-16 -4 -16 -10z"/>
<path d="M1042 3628 c3 -7 31 -28 64 -47 l59 -35 -45 -8 c-31 -5 -53 -17 -72
-38 -60 -66 -14 -170 76 -170 39 0 86 46 85 83 0 29 -1 30 -12 13 -24 -38 -48
-56 -75 -56 -58 0 -85 71 -43 113 28 28 102 27 185 -2 55 -20 83 -20 71 -1 -3
5 -45 30 -93 56 -48 26 -107 60 -131 76 -47 30 -75 36 -69 16z"/>
<path d="M3874 3604 c-32 -20 -124 -70 -204 -111 -158 -82 -167 -88 -151 -97
11 -7 221 95 346 169 95 56 91 53 79 65 -7 7 -30 -2 -70 -26z"/>
<path d="M1580 3491 c0 -6 5 -13 10 -16 6 -3 10 1 10 9 0 9 -4 16 -10 16 -5 0
-10 -4 -10 -9z"/>
<path d="M3930 3465 c-26 -32 13 -81 48 -59 34 22 22 74 -18 74 -10 0 -23 -7
-30 -15z"/>
<path d="M1104 3445 c-4 -9 -2 -21 4 -27 15 -15 44 -1 40 19 -4 23 -36 29 -44
8z"/>
<path d="M3703 3443 c-17 -11 -23 -25 -23 -53 0 -57 45 -88 100 -69 34 12 50
35 50 73 0 55 -77 85 -127 49z"/>
<path d="M1400 3443 c0 -9 209 -113 228 -113 34 0 2 26 -80 65 -98 47 -148 63
-148 48z"/>
<path d="M1282 3356 c-16 -14 -40 -45 -53 -70 -27 -52 -35 -54 -119 -31 -69
18 -80 19 -80 1 0 -10 22 -18 68 -26 94 -16 96 -17 88 -83 l-7 -55 -42 6 c-23
3 -44 9 -46 15 -19 49 -88 62 -119 22 -11 -14 -25 -25 -31 -25 -6 0 -11 -7
-11 -15 0 -8 3 -14 8 -13 4 2 19 -10 34 -25 32 -32 70 -35 99 -6 15 15 30 19
62 17 39 -3 43 -6 51 -39 8 -33 6 -38 -42 -87 -62 -63 -78 -110 -61 -175 16
-64 65 -110 127 -117 l47 -5 3 -44 c4 -50 -17 -81 -56 -81 -19 0 -23 4 -17 18
16 38 16 50 0 66 -9 9 -26 16 -39 16 -53 0 -62 -56 -16 -102 17 -16 30 -31 30
-32 0 -2 -18 -11 -40 -21 -22 -10 -40 -24 -40 -32 0 -18 2 -18 94 23 115 52
126 64 126 139 l0 61 138 31 c75 17 150 36 165 42 35 14 25 35 -12 26 -71 -19
-226 -53 -229 -50 -2 2 1 12 7 23 6 12 11 37 11 57 0 46 -42 91 -94 100 -51
10 -46 38 8 45 45 6 60 27 23 32 -25 3 -25 3 13 46 32 36 43 42 64 36 22 -5
26 -12 26 -43 0 -32 -4 -38 -31 -48 -24 -9 -30 -17 -27 -35 4 -31 49 -37 75
-9 14 16 34 21 87 23 44 2 71 8 74 16 3 9 -16 12 -72 12 l-76 0 0 40 0 40 71
0 c52 0 70 3 67 13 -3 6 -27 14 -54 17 -55 6 -88 22 -103 48 -9 14 -10 11 -11
-15 0 -30 -16 -44 -32 -28 -6 6 13 79 22 89 3 2 39 -2 80 -10 93 -17 110 -18
110 0 0 9 -25 17 -77 25 -114 18 -108 14 -110 75 -4 113 -63 159 -131 102z
m82 -62 c3 -9 6 -31 6 -50 0 -32 -2 -34 -36 -34 -42 0 -43 -23 -1 -28 19 -2
27 -9 27 -22 0 -38 -109 -154 -127 -136 -11 11 -7 146 6 178 14 38 80 108 101
108 10 0 21 -7 24 -16z m-154 -413 c0 -10 -7 -25 -16 -32 -43 -36 -33 -110 19
-138 32 -17 35 -31 7 -31 -36 0 -68 22 -85 61 -17 36 -17 39 -1 55 13 12 14
19 6 24 -8 5 -2 19 20 44 36 40 50 45 50 17z m98 -83 c17 -17 15 -63 -3 -78
-17 -14 -20 -9 -29 53 -5 39 8 49 32 25z m-68 -36 c0 -21 -2 -24 -10 -12 -13
20 -13 53 0 45 6 -3 10 -18 10 -33z"/>
<path d="M1864 3309 c-66 -133 -88 -269 -63 -405 6 -32 31 -104 57 -159 54
-117 60 -177 24 -259 -15 -34 -17 -45 -7 -36 23 19 66 115 67 149 1 33 12 41
22 15 9 -24 7 -100 -4 -129 -6 -15 -6 -24 -1 -20 22 13 43 96 39 150 -4 52 -4
54 11 32 10 -13 16 -43 16 -75 0 -51 1 -52 12 -25 26 60 14 96 -74 230 -85
129 -107 210 -100 362 3 75 12 138 25 179 11 34 18 62 16 62 -2 0 -20 -32 -40
-71z"/>
<path d="M3515 3300 c-100 -44 -139 -70 -102 -70 15 0 214 84 225 95 3 3 1 9
-4 14 -5 5 -57 -12 -119 -39z"/>
<path d="M1455 3301 c-4 -7 20 -23 60 -41 67 -30 105 -38 105 -21 0 7 -34 23
-146 68 -7 2 -15 0 -19 -6z"/>
<path d="M935 3280 c3 -5 8 -10 11 -10 2 0 4 5 4 10 0 6 -5 10 -11 10 -5 0 -7
-4 -4 -10z"/>
<path d="M970 3270 c0 -5 5 -10 10 -10 6 0 10 5 10 10 0 6 -4 10 -10 10 -5 0
-10 -4 -10 -10z"/>
<path d="M3900 3259 c-36 -10 -153 -35 -260 -55 -207 -38 -249 -49 -234 -64 9
-9 169 18 374 63 63 14 132 29 153 33 20 3 40 11 43 16 14 22 -15 25 -76 7z"/>
<path d="M3860 3136 l0 -43 -107 -7 c-103 -7 -107 -7 -124 15 l-17 23 -4 -25
c-3 -21 -9 -24 -48 -26 -167 -9 -211 -35 -55 -32 53 1 98 -1 102 -4 3 -3 2
-22 -1 -41 l-7 -35 -94 -3 c-125 -4 -125 -22 0 -26 82 -2 95 -5 95 -20 0 -9
-5 -24 -10 -32 -7 -12 -12 -12 -22 -2 -6 6 -31 12 -55 12 -32 0 -46 -5 -55
-20 -7 -11 -23 -20 -35 -20 -14 0 -23 -6 -23 -15 0 -9 9 -15 25 -15 13 0 43
-7 65 -16 26 -10 52 -14 73 -10 17 4 57 6 89 6 73 -1 86 17 18 26 -36 5 -50
11 -46 20 3 7 8 29 11 48 l7 35 111 3 c77 2 112 7 115 16 3 9 -23 12 -107 12
l-111 0 0 44 0 43 61 7 c106 11 159 8 165 -9 6 -14 8 -13 20 2 19 26 17 61 -7
99 -11 19 -23 34 -25 34 -2 0 -4 -20 -4 -44z"/>
<path d="M3928 3135 c-9 -19 -8 -29 6 -50 19 -28 45 -32 84 -11 15 8 35 17 45
20 10 3 16 10 12 15 -3 6 -12 8 -19 5 -7 -3 -21 6 -30 20 -23 36 -81 37 -98 1z"/>
<path d="M1878 3118 c-12 -31 12 -149 46 -222 38 -84 67 -114 32 -34 -36 83
-59 158 -65 218 -4 33 -9 48 -13 38z"/>
<path d="M935 2951 c-7 -12 12 -24 25 -16 11 7 4 25 -10 25 -5 0 -11 -4 -15
-9z"/>
<path d="M1010 2945 c0 -13 9 -16 43 -13 23 2 42 8 42 13 0 6 -19 11 -42 13
-34 3 -43 0 -43 -13z"/>
<path d="M3920 2945 c0 -10 11 -15 35 -15 24 0 35 5 35 15 0 10 -11 15 -35 15
-24 0 -35 -5 -35 -15z"/>
<path d="M4040 2945 c0 -8 7 -15 15 -15 8 0 15 7 15 15 0 8 -7 15 -15 15 -8 0
-15 -7 -15 -15z"/>
<path d="M3923 2860 c-47 -19 -56 -78 -17 -109 35 -27 56 -26 91 3 16 13 40
26 53 28 32 4 32 22 0 26 -14 2 -34 14 -45 27 -24 28 -52 37 -82 25z"/>
<path d="M1503 2843 c-19 -3 -33 -10 -33 -18 0 -10 13 -12 58 -8 69 6 82 9 82
23 0 10 -42 11 -107 3z"/>
<path d="M927 2804 c-13 -14 6 -24 43 -24 44 0 70 8 70 21 0 10 -103 12 -113
3z"/>
<path d="M3785 2800 c3 -5 21 -10 40 -10 19 0 37 5 40 10 4 6 -12 10 -40 10
-28 0 -44 -4 -40 -10z"/>
<path d="M3730 2740 c0 -41 -3 -50 -17 -50 -10 0 -85 15 -168 34 -82 18 -153
32 -157 29 -29 -17 25 -35 227 -76 l110 -22 5 -39 5 -40 33 33 c31 31 35 33
85 26 62 -9 61 -9 65 4 2 5 -23 15 -55 22 -58 11 -58 12 -86 70 -16 33 -33 59
-38 59 -5 0 -9 -22 -9 -50z"/>
<path d="M1466 2621 c-115 -59 -160 -91 -127 -91 17 0 222 105 250 127 51 41
1 27 -123 -36z"/>
<path d="M3404 2678 c-8 -13 16 -29 145 -95 138 -71 131 -68 131 -50 0 18
-268 159 -276 145z"/>
<path d="M930 2630 c0 -15 5 -20 18 -18 9 2 17 10 17 18 0 8 -8 16 -17 18 -13
2 -18 -3 -18 -18z"/>
<path d="M3980 2625 c0 -8 7 -15 15 -15 8 0 15 7 15 15 0 8 -7 15 -15 15 -8 0
-15 -7 -15 -15z"/>
<path d="M1643 2574 c-9 -23 13 -40 32 -24 12 10 13 16 4 26 -15 18 -28 18
-36 -2z"/>
<path d="M3327 2573 c-13 -12 -7 -51 9 -57 21 -8 20 -8 38 10 12 12 13 20 6
35 -10 19 -40 26 -53 12z"/>
<path d="M1576 2541 c-5 -8 -251 -151 -260 -151 -11 0 -225 -132 -236 -146
-10 -11 -9 -14 7 -14 10 0 27 6 38 14 24 16 240 141 305 175 77 41 180 110
180 121 0 12 -27 13 -34 1z"/>
<path d="M3425 2520 c-6 -9 71 -62 147 -101 24 -12 92 -51 152 -86 68 -41 112
-61 118 -55 11 11 -16 32 -107 82 -33 18 -113 64 -177 102 -64 37 -119 68
-122 68 -3 0 -7 -4 -11 -10z"/>
<path d="M3730 2513 c0 -8 159 -93 173 -93 4 0 7 6 7 13 0 7 -34 29 -75 50
-73 36 -105 45 -105 30z"/>
<path d="M1652 2418 c-72 -57 -99 -88 -73 -88 13 0 164 123 169 138 7 23 -15
12 -96 -50z"/>
<path d="M3287 2463 c-4 -3 -7 -12 -7 -20 0 -15 26 -18 34 -4 7 11 -18 33 -27
24z"/>
<path d="M922 2428 c-28 -28 -7 -78 33 -78 12 0 26 5 33 12 7 7 12 21 12 33 0
12 -5 26 -12 33 -7 7 -21 12 -33 12 -12 0 -26 -5 -33 -12z"/>
<path d="M3999 2419 c-18 -34 3 -69 41 -69 22 0 33 6 41 24 16 35 -3 66 -41
66 -20 0 -33 -7 -41 -21z"/>
<path d="M3346 2401 c-4 -5 12 -23 33 -40 51 -41 70 -21 20 20 -37 31 -45 34
-53 20z"/>
<path d="M1860 2336 c0 -8 4 -17 9 -20 11 -7 33 18 24 27 -12 12 -33 7 -33 -7z"/>
<path d="M1385 2321 c-58 -25 -76 -102 -35 -146 18 -19 34 -25 65 -25 53 0 89
34 89 86 0 58 -67 106 -119 85z"/>
<path d="M3544 2320 c-51 -20 -73 -109 -36 -143 51 -46 120 -37 147 18 23 50
6 101 -41 121 -38 16 -41 16 -70 4z"/>
<path d="M1691 2229 c-36 -41 -51 -63 -44 -70 7 -7 29 10 67 53 31 35 56 66
56 71 0 20 -31 0 -79 -54z"/>
<path d="M3246 2282 c-9 -15 105 -135 117 -123 7 7 -6 28 -44 68 -60 64 -65
68 -73 55z"/>
<path d="M955 2180 c-4 -7 -3 -16 3 -22 14 -14 45 -2 40 15 -6 16 -34 21 -43
7z"/>
<path d="M4000 2170 c0 -15 5 -20 18 -18 9 2 17 10 17 18 0 8 -8 16 -17 18
-13 2 -18 -3 -18 -18z"/>
<path d="M1830 2155 c0 -8 7 -15 15 -15 8 0 15 7 15 15 0 8 -7 15 -15 15 -8 0
-15 -7 -15 -15z"/>
<path d="M3150 2155 c0 -8 9 -15 20 -15 11 0 20 7 20 15 0 8 -9 15 -20 15 -11
0 -20 -7 -20 -15z"/>
<path d="M1571 2093 c-38 -45 -51 -73 -33 -73 7 0 70 71 85 97 4 6 3 14 -2 17
-5 4 -28 -15 -50 -41z"/>
<path d="M3385 2130 c-4 -6 7 -27 25 -48 17 -20 35 -43 41 -49 11 -15 29 -17
29 -4 0 8 -79 111 -85 111 -2 0 -7 -5 -10 -10z"/>
<path d="M1145 2110 c-15 -17 -16 -24 -7 -45 16 -35 58 -34 74 1 11 23 10 29
-11 45 -29 24 -34 24 -56 -1z"/>
<path d="M3802 2119 c-19 -7 -23 -15 -20 -41 3 -28 7 -34 32 -36 31 -4 46 10
46 45 0 28 -28 43 -58 32z"/>
<path d="M1795 2100 c-7 -12 2 -30 16 -30 12 0 12 27 0 35 -5 3 -12 1 -16 -5z"/>
<path d="M3196 2103 c-12 -12 -6 -33 9 -33 8 0 15 6 15 14 0 17 -14 28 -24 19z"/>
<path d="M1732 2034 c-38 -26 -22 -74 24 -74 28 0 47 24 39 50 -10 31 -38 42
-63 24z"/>
<path d="M3236 2037 c-12 -9 -17 -23 -14 -42 2 -25 8 -31 33 -33 19 -3 33 2
42 14 17 24 17 30 -7 54 -24 24 -30 24 -54 7z"/>
<path d="M1025 1990 c-3 -6 1 -13 10 -16 19 -8 30 0 20 15 -8 14 -22 14 -30 1z"/>
<path d="M1360 1980 c0 -15 5 -20 18 -18 9 2 17 10 17 18 0 8 -8 16 -17 18
-13 2 -18 -3 -18 -18z"/>
<path d="M3605 1990 c-8 -14 3 -30 21 -30 8 0 14 9 14 20 0 21 -24 28 -35 10z"/>
<path d="M1296 1862 c-2 -4 -1 -14 4 -22 7 -11 12 -12 21 -3 6 6 8 16 5 22 -8
13 -23 14 -30 3z"/>
<path d="M3682 1854 c4 -21 22 -23 26 -1 2 10 -3 17 -13 17 -10 0 -15 -6 -13
-16z"/>
<path d="M1860 1845 c0 -8 9 -15 20 -15 11 0 20 7 20 15 0 8 -9 15 -20 15 -11
0 -20 -7 -20 -15z"/>
<path d="M3110 1847 c0 -19 10 -27 26 -20 21 8 17 33 -6 33 -11 0 -20 -6 -20
-13z"/>
<path d="M1660 1835 c0 -9 5 -15 11 -13 6 2 11 8 11 13 0 5 -5 11 -11 13 -6 2
-11 -4 -11 -13z"/>
<path d="M3330 1835 c0 -9 5 -15 11 -13 6 2 11 8 11 13 0 5 -5 11 -11 13 -6 2
-11 -4 -11 -13z"/>
<path d="M1852 1763 c2 -10 10 -18 18 -18 8 0 16 8 18 18 2 12 -3 17 -18 17
-15 0 -20 -5 -18 -17z"/>
<path d="M3120 1766 c0 -8 5 -18 10 -21 13 -8 42 14 34 26 -9 15 -44 10 -44
-5z"/>
<path d="M1585 1760 c-4 -6 -3 -16 3 -22 6 -6 12 -6 17 2 4 6 3 16 -3 22 -6 6
-12 6 -17 -2z"/>
<path d="M3397 1763 c-12 -11 -8 -23 8 -23 8 0 15 7 15 15 0 16 -12 20 -23 8z"/>
<path d="M3435 1670 c-4 -6 -3 -16 3 -22 6 -6 12 -6 17 2 4 6 3 16 -3 22 -6 6
-12 6 -17 -2z"/>
<path d="M1844 1589 c-7 -12 15 -31 28 -23 4 3 8 12 8 20 0 17 -26 19 -36 3z"/>
<path d="M3130 1586 c0 -8 4 -17 8 -20 13 -8 35 11 28 23 -10 16 -36 14 -36
-3z"/>
<path d="M961 1313 c-11 -76 -35 -229 -53 -340 -17 -111 -29 -205 -26 -209 4
-3 29 -3 57 1 l49 7 7 49 c9 64 25 79 85 79 53 0 50 5 63 -90 2 -12 15 -14 57
-12 30 2 57 5 58 7 2 2 -12 93 -32 202 -19 109 -44 245 -53 303 l-18 105 -65
17 c-114 29 -104 37 -129 -119z m128 -202 c6 -39 11 -76 11 -84 0 -15 -50 -30
-61 -19 -9 9 21 172 31 172 4 0 12 -31 19 -69z"/>
<path d="M3879 1407 c-69 -46 -100 -128 -79 -205 13 -51 45 -89 131 -158 73
-58 90 -87 66 -111 -23 -23 -68 -8 -134 43 -32 25 -59 41 -60 37 -23 -80 -22
-89 23 -145 52 -63 111 -98 168 -98 84 0 140 68 139 166 -1 91 -36 143 -172
253 -30 23 -41 39 -39 55 5 38 48 32 107 -15 28 -23 54 -39 56 -37 3 3 8 32
11 65 6 54 4 64 -21 101 -47 71 -132 93 -196 49z"/>
<path d="M1430 1342 c-101 -50 -158 -226 -115 -353 20 -58 69 -118 111 -135
73 -31 165 -12 217 44 l29 30 -44 40 c-43 40 -43 41 -64 21 -58 -54 -134 6
-134 106 0 99 75 160 129 106 20 -20 20 -19 61 10 55 40 58 54 24 91 -55 58
-145 75 -214 40z"/>
<path d="M3473 1353 c-37 -7 -102 -90 -119 -151 -21 -72 -15 -182 14 -238 25
-48 91 -111 127 -120 15 -4 47 -4 73 -1 40 4 53 12 90 52 28 31 47 66 58 103
32 110 1 252 -72 323 -29 28 -41 33 -91 35 -32 1 -68 0 -80 -3z m110 -164 c58
-79 11 -231 -65 -211 -51 13 -77 136 -43 202 25 48 75 52 108 9z"/>
<path d="M1740 1157 c5 -181 5 -184 32 -220 50 -65 154 -75 224 -22 54 41 62
70 66 248 l3 157 -57 0 -58 0 0 -136 c0 -74 -5 -144 -10 -155 -13 -23 -53 -25
-75 -3 -14 14 -16 38 -13 159 l3 143 -44 6 c-83 11 -77 28 -71 -177z"/>
<path d="M3190 1333 l-35 -4 3 -112 3 -112 -25 30 c-13 17 -46 65 -73 107
l-48 77 -50 1 -50 0 0 -207 c0 -234 -5 -220 79 -222 l39 -1 -7 100 c-5 66 -3
100 3 100 6 0 42 -47 80 -104 l70 -104 46 -4 45 -3 0 232 0 233 -22 -2 c-13
-1 -39 -3 -58 -5z"/>
<path d="M2161 1105 l-3 -205 58 0 59 0 -3 70 -4 70 51 0 51 0 0 50 0 50 -51
0 c-47 0 -50 2 -47 23 3 20 9 22 84 25 l80 3 -4 29 c-2 16 1 43 6 60 l11 30
-142 0 -142 0 -4 -205z"/>
<path d="M2528 1105 l3 -205 139 0 140 0 0 60 0 60 -91 0 c-81 0 -90 2 -87 18
2 13 15 18 51 20 l47 3 0 45 0 44 -51 0 c-43 0 -50 3 -47 18 3 14 18 18 88 22
l85 5 0 58 1 57 -141 0 -140 0 3 -205z"/>
<path d="M1913 735 c-15 -11 -23 -26 -23 -46 0 -26 6 -33 40 -46 22 -9 40 -20
40 -24 0 -16 -20 -20 -42 -8 -18 10 -24 8 -35 -7 -12 -16 -10 -20 9 -31 13 -7
37 -12 54 -13 80 -1 93 85 18 116 -25 11 -33 19 -26 26 7 7 16 6 30 -1 17 -9
21 -7 25 11 8 27 7 28 -34 34 -22 3 -42 0 -56 -11z"/>
<path d="M2100 741 c0 -5 -3 -16 -6 -25 -5 -13 1 -16 25 -16 l31 0 0 -70 c0
-69 1 -70 26 -70 25 0 26 1 22 70 l-3 70 28 0 c22 0 27 4 27 25 0 24 -2 25
-75 25 -41 0 -75 -4 -75 -9z"/>
<path d="M2330 675 c0 -89 17 -115 75 -115 58 0 75 26 75 115 0 73 -1 75 -25
75 -23 0 -24 -3 -27 -67 -3 -60 -5 -68 -23 -68 -18 0 -20 8 -23 68 -3 64 -4
67 -27 67 -24 0 -25 -2 -25 -75z"/>
<path d="M2580 655 l0 -95 46 0 c59 0 82 13 100 57 31 73 -19 133 -111 133
l-35 0 0 -95z m96 18 c8 -30 -5 -56 -30 -61 -13 -3 -16 5 -16 42 0 39 3 46 20
46 13 0 22 -9 26 -27z"/>
<path d="M2820 655 c0 -95 0 -95 25 -95 25 0 25 0 25 95 0 95 0 95 -25 95 -25
0 -25 0 -25 -95z"/>
<path d="M2998 733 c-68 -43 -37 -173 41 -173 43 0 60 9 76 41 46 88 -38 182
-117 132z m72 -59 c12 -31 -3 -64 -29 -64 -21 0 -31 26 -24 64 7 35 40 35 53
0z"/>
<path d="M1173 645 c-117 -6 -216 -15 -220 -18 -22 -23 33 -25 307 -12 162 8
337 15 388 17 53 3 97 9 104 16 16 16 -280 14 -579 -3z"/>
<path d="M3290 651 c0 -16 31 -21 138 -22 59 0 220 -6 357 -13 246 -13 275
-12 275 5 0 13 -48 18 -295 29 -282 12 -475 13 -475 1z"/>
</g>
</svg>
