<?xml version="1.0" standalone="no"?>
<!DOCTYPE svg PUBLIC "-//W3C//DTD SVG 20010904//EN"
 "http://www.w3.org/TR/2001/REC-SVG-20010904/DTD/svg10.dtd">
<svg version="1.0" xmlns="http://www.w3.org/2000/svg"
 width="2048.000000pt" height="2048.000000pt" viewBox="0 0 2048.000000 2048.000000"
 preserveAspectRatio="xMidYMid meet">

<g transform="translate(0.000000,2048.000000) scale(0.100000,-0.100000)"
fill="#000000" stroke="none">
<path d="M10345 16609 c-1471 -119 -2698 -961 -3279 -2250 -128 -283 -219
-578 -256 -829 -25 -168 -12 -238 57 -301 51 -48 92 -63 168 -63 78 0 130 21
176 71 42 44 55 79 83 223 84 421 233 788 461 1135 122 184 230 320 379 473
406 419 861 705 1396 880 388 127 710 176 1145 176 405 0 711 -44 1039 -151
438 -142 762 -348 1038 -658 472 -530 748 -1425 748 -2427 0 -515 -88 -1061
-248 -1538 -82 -245 -120 -336 -232 -565 -163 -331 -309 -561 -633 -995 -441
-590 -602 -839 -810 -1256 -206 -412 -339 -789 -517 -1464 -200 -758 -263
-971 -355 -1199 -239 -591 -596 -975 -1045 -1125 -149 -50 -256 -66 -435 -66
-229 0 -377 31 -547 115 -404 200 -681 597 -768 1101 -6 33 -14 115 -19 181
-13 168 -46 231 -148 282 -50 25 -146 28 -197 7 -50 -21 -107 -76 -130 -126
-18 -38 -21 -62 -19 -155 6 -381 156 -834 383 -1157 88 -126 300 -338 425
-426 525 -369 1213 -424 1812 -146 195 90 378 220 548 389 399 398 633 886
873 1825 251 980 361 1308 586 1759 187 373 337 604 760 1171 494 662 748
1118 935 1680 188 561 271 1096 271 1731 1 887 -227 1777 -609 2378 -458 722
-1214 1174 -2166 1295 -272 35 -626 45 -870 25z"/>
<path d="M10300 15399 c-584 -55 -1093 -283 -1508 -674 -450 -425 -717 -1016
-773 -1711 -21 -262 7 -804 46 -892 33 -72 146 -78 181 -10 18 34 17 74 -7
253 -19 140 -16 602 5 760 50 384 157 710 327 994 121 201 316 428 490 568
239 194 562 355 862 432 399 103 809 106 1195 10 157 -39 273 -83 431 -165
436 -225 741 -594 910 -1099 96 -287 134 -547 135 -910 0 -301 -26 -535 -90
-825 -164 -731 -501 -1398 -1032 -2040 -156 -188 -266 -305 -667 -710 -429
-432 -521 -532 -668 -728 -125 -168 -223 -333 -356 -603 -133 -272 -216 -389
-351 -494 -128 -99 -244 -144 -395 -152 -192 -11 -337 40 -456 157 -109 107
-159 230 -159 384 1 155 53 263 213 435 265 286 378 508 408 798 19 184 -18
368 -110 552 -28 54 -102 177 -166 274 -63 97 -135 213 -159 259 -46 87 -98
225 -111 293 -14 82 -72 133 -132 119 -37 -9 -81 -50 -88 -83 -13 -60 92 -339
193 -511 30 -52 97 -159 149 -237 165 -250 215 -384 214 -583 0 -256 -100
-462 -361 -745 -188 -204 -260 -361 -260 -567 0 -295 159 -555 415 -678 99
-48 165 -67 277 -79 164 -19 322 11 483 89 128 63 249 161 347 281 96 118 136
185 249 412 253 505 381 668 1026 1307 332 329 478 485 659 705 630 767 1002
1600 1121 2510 14 110 18 208 18 460 0 280 -3 339 -23 470 -83 559 -289 1004
-627 1354 -400 414 -975 636 -1635 630 -74 -1 -173 -5 -220 -10z"/>
<path d="M10429 14863 c-80 -68 -77 -194 6 -249 14 -9 69 -25 123 -36 411 -81
797 -343 1033 -702 167 -253 280 -584 320 -935 7 -66 10 -191 6 -345 -5 -256
-22 -397 -73 -633 -27 -122 -27 -123 -9 -164 34 -75 120 -108 197 -76 50 21
66 51 93 165 116 491 121 1044 15 1457 -133 515 -380 897 -770 1187 -182 136
-476 273 -711 332 -136 34 -188 34 -230 -1z"/>
<path d="M8994 11970 c-61 -24 -85 -121 -44 -173 27 -34 65 -44 190 -50 128
-7 282 -30 415 -64 412 -103 723 -341 898 -688 77 -155 120 -345 120 -540 0
-189 -39 -361 -118 -529 -37 -78 -130 -215 -199 -294 -45 -51 -56 -70 -56 -98
0 -75 54 -123 124 -110 43 8 125 94 214 224 343 502 329 1176 -34 1662 -284
379 -709 591 -1318 655 -164 17 -163 17 -192 5z"/>
</g>
</svg>
